# xmcd
#
# Track frame offsets: 
#        150
#        16508
#        35340
#        49527
#        64361
#        77939
#        101207
#        115433
#        128945
#        145705
#        162677
#        177776
#        193258
#        214192
#        236936
#
# Disc length: 3642 seconds
#
# Revision: 3
# Processed by: cddbd v1.5.2PL0 Copyright (c) Steve Scherf et al.
# Submitted via: ExactAudioCopyFreeDBPlugin 1.0
#
DISCID=dd0e380f
DTITLE=Bligg - Odyssey
DYEAR=2004
DGENRE=Rap
TTITLE0=Intro
TTITLE1=Bomdiggy
TTITLE2=Single
TTITLE3=Odyssey (feat. Stress)
TTITLE4=Wändwäischwasimäin
TTITLE5=Predicto (feat. Emel)
TTITLE6=V. I. P.
TTITLE7=Du chönntsch
TTITLE8=Räge
TTITLE9=Sexy Mamy
TTITLE10=Gib nöd uf (feat. Stephanie)
TTITLE11=King Size (feat. Kool Savas)
TTITLE12=Angela
TTITLE13=Outro
TTITLE14=Data Track
EXTD=
EXTT0=
EXTT1=
EXTT2=
EXTT3=
EXTT4=
EXTT5=
EXTT6=
EXTT7=
EXTT8=
EXTT9=
EXTT10=
EXTT11=
EXTT12=
EXTT13=
EXTT14=
PLAYORDER=
